<svg fill="#4f3323" viewBox="0 0 156967.91 71435.59"><path d="M23952.85 27605.26 16138.43 1104.21H9130.98l-7049.97 25736.6C1528.9 28836.9 764.45 30026.03.01 30663.17v1486.38h6582.78v-1486.38c-849.36-722.05-1189.13-1529.02-1189.13-2930.48 0-806.96 127.43-2123.52 509.59-3992.18h7177.4l467.2 1656.32c849.36 3057.91 976.79 3652.41 976.79 4119.61 0 552.11-212.34 849.36-722.05 1146.73v1486.38h11636.78v-1486.38c-764.45-891.88-976.79-1316.68-1486.5-3057.91zM6412.96 21404.77l127.3-509.71L9300.8 9895.42l3142.82 11509.35H6412.95zm42342.22 6285.53-764.45-5223.83c-467.2-3397.56-2378.25-5351.13-5903.24-5648.51 4204.4-1189.13 6582.78-4034.58 6582.78-7941.72 0-5351.25-4374.34-7772.03-11424.32-7772.03h-10787.3v1486.5c637.02 254.73 764.45 764.45 764.45 2972.88v22126.7c0 2208.31-127.43 2718.02-764.45 2972.88v1486.38h10447.53v-1486.38c-637.14-254.86-764.45-764.57-764.45-2972.88V18516.8h254.73c1911.18 0 2505.81 1189.13 2718.14 3312.65l1061.7 10320.1h9852.9v-1486.38c-764.45-169.95-934.27-552.11-1274.04-2972.88zM36141.74 16435.81v-11849c0-806.96 254.73-1231.64 934.27-1231.64 1443.98 42.39 2633.11 2675.5 2633.11 6370.44 0 4246.92-849.36 6710.2-3355.04 6710.2zm20597.68 14227.36v1486.38h10447.53v-1486.38c-637.02-254.86-764.45-764.57-764.45-2972.88V5818.32c0-1401.47 382.29-2038.48 1189.13-2038.48 1274.16 0 1996.09 1698.72 3694.93 8706.29l2463.16-169.95L72962.88-.01h-2166.04c-424.68 891.88-849.36 1104.22-2208.31 1104.22H55337.95c-1359.07 0-1783.75-212.34-2208.43-1104.22h-2165.91l-806.96 12316.19 2463.29 169.95c1613.81-6115.7 2250.82-8706.29 3694.81-8706.29 806.96 0 1189.13 637.02 1189.13 2038.48v21871.97c0 2208.31-127.43 2718.02-764.45 2972.88zm18601.84 0v1486.38h10447.53v-1486.38c-637.14-254.86-764.45-849.48-764.45-2972.88V5563.59c0-2123.52 127.3-2718.14 764.45-2972.88v-1486.5H75341.26v1486.5c637.02 254.73 764.45 849.36 764.45 2972.88v22126.7c0 2123.4-127.43 2718.02-764.45 2972.88m23273.31 2038.49c6073.18 0 9980.33-3609.9 9980.33-9130.97 0-4756.63-1996.09-8111.67-6795.11-11211.98-4459.38-2845.45-6158.1-4247.04-6158.1-6370.44 0-1953.57 1274.04-3142.82 3185.22-3142.82 2675.63 0 4714.11 2505.81 6667.69 8154.19l2123.52-212.34-594.63-10192.67h-2165.91c-382.16 509.59-764.45 679.54-1571.41 679.54-976.79 0-1656.32-679.54-5053.88-679.54-5775.81 0-9683.08 3779.72-9683.08 9003.55 0 4374.34 1868.66 6752.72 6710.2 9895.42 4714.11 3015.4 6243.13 4968.97 6243.13 7347.22 0 2335.86-1359.07 3609.9-3482.59 3609.9-2760.54 0-4883.93-1741.23-7856.81-8578.87l-2123.52 212.34 594.5 10192.8h2166.04c552.11-467.2 1104.22-679.54 1783.75-679.54 1146.61 0 3397.56 1104.22 6030.67 1104.22zm33848.27-5096.4-7814.42-26501.05h-7007.45L110591 26840.81c-552.11 1996.09-1316.56 3185.22-2081 3822.36v1486.38h6582.78v-1486.38c-849.36-722.05-1189.13-1529.02-1189.13-2930.48 0-806.96 127.43-2123.52 509.59-3992.18h7177.4l467.2 1656.32c849.36 3057.91 976.79 3652.41 976.79 4119.61 0 552.11-212.34 849.36-722.05 1146.73v1486.38h11636.78v-1486.38c-764.45-891.88-976.79-1316.68-1486.5-3057.91zm-17539.89-6200.49 127.3-509.71 2760.54-10999.64 3142.82 11509.35h-6030.67zm36863.66-20300.55v1486.5c594.5 509.59 1274.04 1231.52 1274.04 4501.77v10787.3L140914.4 1104.22h-5860.85v1486.5c637.02 254.73 764.45 849.36 764.45 2972.88v20597.68c0 3270.25-679.54 3992.18-1274.04 4501.9v1486.38h5181.19v-1486.38c-594.5-509.71-1274.04-1231.64-1274.04-4501.9V12953.21l13845.09 19196.34h3397.56V7092.49c0-3270.25 679.54-3992.18 1274.16-4501.77v-1486.5zM50196.81 41112.31v-1486.5H39749.28v1486.5c637.02 254.73 764.45 849.36 764.45 2972.88v6710.2H36181.9v-6710.2c0-2123.52 127.3-2718.14 764.45-2972.88v-1486.5H26498.82v1486.5c637.02 254.73 764.45 849.36 764.45 2972.88v22126.7c0 2123.4-127.43 2718.02-764.45 2972.88v1486.38h10447.53v-1486.38c-637.14-254.86-764.45-849.48-764.45-2972.88V53046.22h4331.83v13165.67c0 2123.4-127.43 2718.02-764.45 2972.88v1486.38h10447.53v-1486.38c-637.02-254.86-764.45-849.48-764.45-2972.88v-22126.7c0-2123.52 127.43-2718.14 764.45-2972.88m8863.63 28072.46v1486.38h10447.53v-1486.38c-637.14-254.86-764.45-849.48-764.45-2972.88v-22126.7c0-2123.52 127.3-2718.14 764.45-2972.88v-1486.5H59060.44v1486.5c637.02 254.73 764.45 849.36 764.45 2972.88v22126.7c0 2123.4-127.43 2718.02-764.45 2972.88m19311.04 0v1486.38h10065.24c8833.72 0 14099.94-6582.78 14099.94-15798.66 0-9300.92-5266.22-15246.68-14567.14-15246.68h-9598.05v1486.5c637.02 254.73 764.45 849.36 764.45 2972.88v22126.7c0 2123.4-127.43 2718.02-764.45 2972.88zM89540.94 68845c-1189.13 0-1486.38-1274.16-1486.38-3100.31V43957.76c0-1486.5 254.73-2505.68 1231.52-2505.68 2250.95 0 3694.93 5520.95 3694.93 13802.57 0 8069.28-934.39 13590.35-3440.07 13590.35m38464.99-9343.31c-1189.13 6200.49-2505.81 8918.51-5053.88 8918.51-1698.84 0-2420.77-849.36-2420.77-2802.93V54617.63h976.79c1571.29 0 3015.27 254.86 3567.38 1741.23h1401.59v-5648.51h-1401.59c-552.11 1443.98-1911.06 1656.32-3482.47 1656.32h-1061.7v-7686.99c0-1911.06 721.93-2802.93 2293.34-2802.93 1868.66 0 3057.79 2081 4162 6497.86l2335.86-85.03 84.91-9428.22h-2165.91c-552.11 594.63-1104.22 764.45-2633.11 764.45h-13760.18v1486.5c637.02 254.73 764.45 764.45 764.45 2972.88v22126.7c0 2208.31-127.43 2718.02-764.45 2972.88v1486.38h13887.48c1529.02 0 2081.13 169.82 2633.11 764.45h2166.04l934.27-11764.08-2463.16-169.82z"/></svg>